{"asset":{"version":"2.0","generator":"Blockbench 5.0.7 glTF exporter"},"scenes":[{"nodes":[13],"name":"blockbench_export"}],"scene":0,"nodes":[{"translation":[-1.125,0,0],"name":"key3"},{"translation":[0,-0.0625,0],"name":"mesh","mesh":0},{"translation":[0.3125,0.21875,-0.34375],"name":"pyramid","mesh":1},{"translation":[-0.3125,0.21875,-0.34375],"name":"pyramid","mesh":2},{"translation":[-0.3125,0.21875,0.34374999999999994],"name":"pyramid","mesh":3},{"translation":[0.3125,0.21875,0.34374999999999994],"name":"pyramid","mesh":4},{"translation":[0,0.21875,0],"name":"mesh","mesh":5},{"rotation":[0.13917310096006544,0,0,0.9902680687415704],"translation":[0,0.21875,-0.44562499999999994],"name":"mesh","mesh":6},{"rotation":[-0.13917310096006544,0,0,0.9902680687415704],"translation":[0,0.21875,0.44562499999999994],"name":"mesh","mesh":7},{"rotation":[-0.12096430794655944,-0.6966832901583754,-0.12096430794655949,0.6966833323828845],"translation":[-0.44575,0.22252937500000003,0],"name":"mesh","mesh":8},{"rotation":[-0.6966833112706193,-0.12096418635238493,-0.6966833112706192,0.12096442954073766],"translation":[0.2783125,0.693125,0],"name":"mesh","mesh":9},{"translation":[0,-0.21875,0],"name":"mesh","mesh":10},{"translation":[-1.125,0,0],"name":"key2","children":[0,1,2,3,4,5,6,7,8,9,10,11]},{"translation":[1.125,0.65625,-0.7625],"name":"key1","children":[12]}],"bufferViews":[{"buffer":0,"byteOffset":0,"byteLength":288,"target":34962,"byteStride":12},{"buffer":0,"byteOffset":288,"byteLength":288,"target":34962,"byteStride":12},{"buffer":0,"byteOffset":576,"byteLength":192,"target":34962,"byteStride":8},{"buffer":0,"byteOffset":768,"byteLength":72,"target":34963},{"buffer":0,"byteOffset":840,"byteLength":192,"target":34962,"byteStride":12},{"buffer":0,"byteOffset":1032,"byteLength":192,"target":34962,"byteStride":12},{"buffer":0,"byteOffset":1224,"byteLength":128,"target":34962,"byteStride":8},{"buffer":0,"byteOffset":1352,"byteLength":36,"target":34963},{"buffer":0,"byteOffset":1388,"byteLength":192,"target":34962,"byteStride":12},{"buffer":0,"byteOffset":1580,"byteLength":192,"target":34962,"byteStride":12},{"buffer":0,"byteOffset":1772,"byteLength":128,"target":34962,"byteStride":8},{"buffer":0,"byteOffset":1900,"byteLength":36,"target":34963},{"buffer":0,"byteOffset":1936,"byteLength":192,"target":34962,"byteStride":12},{"buffer":0,"byteOffset":2128,"byteLength":192,"target":34962,"byteStride":12},{"buffer":0,"byteOffset":2320,"byteLength":128,"target":34962,"byteStride":8},{"buffer":0,"byteOffset":2448,"byteLength":36,"target":34963},{"buffer":0,"byteOffset":2484,"byteLength":192,"target":34962,"byteStride":12},{"buffer":0,"byteOffset":2676,"byteLength":192,"target":34962,"byteStride":12},{"buffer":0,"byteOffset":2868,"byteLength":128,"target":34962,"byteStride":8},{"buffer":0,"byteOffset":2996,"byteLength":36,"target":34963},{"buffer":0,"byteOffset":3032,"byteLength":288,"target":34962,"byteStride":12},{"buffer":0,"byteOffset":3320,"byteLength":288,"target":34962,"byteStride":12},{"buffer":0,"byteOffset":3608,"byteLength":192,"target":34962,"byteStride":8},{"buffer":0,"byteOffset":3800,"byteLength":72,"target":34963},{"buffer":0,"byteOffset":3872,"byteLength":288,"target":34962,"byteStride":12},{"buffer":0,"byteOffset":4160,"byteLength":288,"target":34962,"byteStride":12},{"buffer":0,"byteOffset":4448,"byteLength":192,"target":34962,"byteStride":8},{"buffer":0,"byteOffset":4640,"byteLength":72,"target":34963},{"buffer":0,"byteOffset":4712,"byteLength":288,"target":34962,"byteStride":12},{"buffer":0,"byteOffset":5000,"byteLength":288,"target":34962,"byteStride":12},{"buffer":0,"byteOffset":5288,"byteLength":192,"target":34962,"byteStride":8},{"buffer":0,"byteOffset":5480,"byteLength":72,"target":34963},{"buffer":0,"byteOffset":5552,"byteLength":288,"target":34962,"byteStride":12},{"buffer":0,"byteOffset":5840,"byteLength":288,"target":34962,"byteStride":12},{"buffer":0,"byteOffset":6128,"byteLength":192,"target":34962,"byteStride":8},{"buffer":0,"byteOffset":6320,"byteLength":72,"target":34963},{"buffer":0,"byteOffset":6392,"byteLength":288,"target":34962,"byteStride":12},{"buffer":0,"byteOffset":6680,"byteLength":288,"target":34962,"byteStride":12},{"buffer":0,"byteOffset":6968,"byteLength":192,"target":34962,"byteStride":8},{"buffer":0,"byteOffset":7160,"byteLength":72,"target":34963},{"buffer":0,"byteOffset":7232,"byteLength":288,"target":34962,"byteStride":12},{"buffer":0,"byteOffset":7520,"byteLength":288,"target":34962,"byteStride":12},{"buffer":0,"byteOffset":7808,"byteLength":192,"target":34962,"byteStride":8},{"buffer":0,"byteOffset":8000,"byteLength":72,"target":34963}],"buffers":[{"byteLength":8072,"uri":"data:application/octet-stream;base64,"}],"accessors":[{"bufferView":0,"componentType":5126,"count":24,"max":[0.46875,0.3125,0.46875],"min":[-0.46875,0.1875,-0.46875],"type":"VEC3"},{"bufferView":1,"componentType":5126,"count":24,"max":[1,1,1],"min":[-1,-1,-1],"type":"VEC3"},{"bufferView":2,"componentType":5126,"count":24,"max":[0.76953125,0.55078125],"min":[0.0625,0.0859375],"type":"VEC2"},{"bufferView":3,"componentType":5123,"count":36,"max":[23],"min":[0],"type":"SCALAR"},{"bufferView":4,"componentType":5126,"count":16,"max":[0.15625,0.46875,0.125],"min":[-0.15625,0.03125,-0.125],"type":"VEC3"},{"bufferView":5,"componentType":5126,"count":16,"max":[0.9417418837547302,0.3363364040851593,0.9615239500999451],"min":[-0.9417418837547302,-1,-0.9615239500999451],"type":"VEC3"},{"bufferView":6,"componentType":5126,"count":16,"max":[0.7302004098892212,0.7421875],"min":[0.262248158454895,0.484375],"type":"VEC2"},{"bufferView":7,"componentType":5123,"count":18,"max":[15],"min":[0],"type":"SCALAR"},{"bufferView":8,"componentType":5126,"count":16,"max":[0.15625,0.46875,0.125],"min":[-0.15625,0.03125,-0.125],"type":"VEC3"},{"bufferView":9,"componentType":5126,"count":16,"max":[0.9417418837547302,0.3363364040851593,0.9615239500999451],"min":[-0.9417418837547302,-1,-0.9615239500999451],"type":"VEC3"},{"bufferView":10,"componentType":5126,"count":16,"max":[0.5778566598892212,0.7449120283126831],"min":[0.309123158454895,0.69140625],"type":"VEC2"},{"bufferView":11,"componentType":5123,"count":18,"max":[15],"min":[0],"type":"SCALAR"},{"bufferView":12,"componentType":5126,"count":16,"max":[0.15625,0.46875,0.125],"min":[-0.15625,0.03125,-0.125],"type":"VEC3"},{"bufferView":13,"componentType":5126,"count":16,"max":[0.9417418837547302,0.3363364040851593,0.9615239500999451],"min":[-0.9417418837547302,-1,-0.9615239500999451],"type":"VEC3"},{"bufferView":14,"componentType":5126,"count":16,"max":[0.6169191598892212,0.7449120283126831],"min":[0.355998158454895,0.69140625],"type":"VEC2"},{"bufferView":15,"componentType":5123,"count":18,"max":[15],"min":[0],"type":"SCALAR"},{"bufferView":16,"componentType":5126,"count":16,"max":[0.15625,0.46875,0.125],"min":[-0.15625,0.03125,-0.125],"type":"VEC3"},{"bufferView":17,"componentType":5126,"count":16,"max":[0.9417418837547302,0.3363364040851593,0.9615239500999451],"min":[-0.9417418837547302,-1,-0.9615239500999451],"type":"VEC3"},{"bufferView":18,"componentType":5126,"count":16,"max":[0.4765625,0.7488182783126831],"min":[0.000268320320174098,0.69140625],"type":"VEC2"},{"bufferView":19,"componentType":5123,"count":18,"max":[15],"min":[0],"type":"SCALAR"},{"bufferView":20,"componentType":5126,"count":24,"max":[0.3125,0.46875,0.34375],"min":[-0.3125,0.03125,-0.34375],"type":"VEC3"},{"bufferView":21,"componentType":5126,"count":24,"max":[1,1,1],"min":[-1,-1,-1],"type":"VEC3"},{"bufferView":22,"componentType":5126,"count":24,"max":[0.70703125,0.69140625],"min":[0.3046875,0],"type":"VEC2"},{"bufferView":23,"componentType":5123,"count":36,"max":[23],"min":[0],"type":"SCALAR"},{"bufferView":24,"componentType":5126,"count":24,"max":[0.3125,0.47718751430511475,0.03125],"min":[-0.3125,0.022812500596046448,-0.03125],"type":"VEC3"},{"bufferView":25,"componentType":5126,"count":24,"max":[1,1,1],"min":[-1,-1,-1],"type":"VEC3"},{"bufferView":26,"componentType":5126,"count":24,"max":[0.7890625,0.75390625],"min":[0.265625,0.03125],"type":"VEC2"},{"bufferView":27,"componentType":5123,"count":36,"max":[23],"min":[0],"type":"SCALAR"},{"bufferView":28,"componentType":5126,"count":24,"max":[0.3125,0.47718751430511475,0.03125],"min":[-0.3125,0.022812500596046448,-0.03125],"type":"VEC3"},{"bufferView":29,"componentType":5126,"count":24,"max":[1,1,1],"min":[-1,-1,-1],"type":"VEC3"},{"bufferView":30,"componentType":5126,"count":24,"max":[0.7890625,0.76953125],"min":[0.52734375,0.09375],"type":"VEC2"},{"bufferView":31,"componentType":5123,"count":36,"max":[23],"min":[0],"type":"SCALAR"},{"bufferView":32,"componentType":5126,"count":24,"max":[0.34375,0.48249998688697815,0.030625000596046448],"min":[-0.34375,0.017500000074505806,-0.030625000596046448],"type":"VEC3"},{"bufferView":33,"componentType":5126,"count":24,"max":[1,1,1],"min":[-1,-1,-1],"type":"VEC3"},{"bufferView":34,"componentType":5126,"count":24,"max":[0.7890625,0.7734375],"min":[0.21875,0.21484375],"type":"VEC2"},{"bufferView":35,"componentType":5123,"count":36,"max":[23],"min":[0],"type":"SCALAR"},{"bufferView":36,"componentType":5126,"count":24,"max":[0.34375,0.48249998688697815,0.030625000596046448],"min":[-0.34375,0.017500000074505806,-0.030625000596046448],"type":"VEC3"},{"bufferView":37,"componentType":5126,"count":24,"max":[1,1,1],"min":[-1,-1,-1],"type":"VEC3"},{"bufferView":38,"componentType":5126,"count":24,"max":[0.6953125,0.7734375],"min":[0.078125,0.53515625],"type":"VEC2"},{"bufferView":39,"componentType":5123,"count":36,"max":[23],"min":[0],"type":"SCALAR"},{"bufferView":40,"componentType":5126,"count":24,"max":[0.375,0.34375,0.375],"min":[-0.375,0.15625,-0.375],"type":"VEC3"},{"bufferView":41,"componentType":5126,"count":24,"max":[1,1,1],"min":[-1,-1,-1],"type":"VEC3"},{"bufferView":42,"componentType":5126,"count":24,"max":[0.74609375,0.62109375],"min":[0.1015625,0.23046875],"type":"VEC2"},{"bufferView":43,"componentType":5123,"count":36,"max":[23],"min":[0],"type":"SCALAR"}],"materials":[{"pbrMetallicRoughness":{"metallicFactor":0,"roughnessFactor":1,"baseColorTexture":{"index":0}},"alphaMode":"MASK","alphaCutoff":0.05,"doubleSided":true}],"textures":[{"sampler":0,"source":0,"name":"o3c.png"}],"samplers":[{"magFilter":9728,"minFilter":9728,"wrapS":33071,"wrapT":33071}],"images":[{"mimeType":"image/png","uri":"data:image/png;base64,"}],"meshes":[{"primitives":[{"mode":4,"attributes":{"POSITION":0,"NORMAL":1,"TEXCOORD_0":2},"indices":3,"material":0}]},{"primitives":[{"mode":4,"attributes":{"POSITION":4,"NORMAL":5,"TEXCOORD_0":6},"indices":7,"material":0}]},{"primitives":[{"mode":4,"attributes":{"POSITION":8,"NORMAL":9,"TEXCOORD_0":10},"indices":11,"material":0}]},{"primitives":[{"mode":4,"attributes":{"POSITION":12,"NORMAL":13,"TEXCOORD_0":14},"indices":15,"material":0}]},{"primitives":[{"mode":4,"attributes":{"POSITION":16,"NORMAL":17,"TEXCOORD_0":18},"indices":19,"material":0}]},{"primitives":[{"mode":4,"attributes":{"POSITION":20,"NORMAL":21,"TEXCOORD_0":22},"indices":23,"material":0}]},{"primitives":[{"mode":4,"attributes":{"POSITION":24,"NORMAL":25,"TEXCOORD_0":26},"indices":27,"material":0}]},{"primitives":[{"mode":4,"attributes":{"POSITION":28,"NORMAL":29,"TEXCOORD_0":30},"indices":31,"material":0}]},{"primitives":[{"mode":4,"attributes":{"POSITION":32,"NORMAL":33,"TEXCOORD_0":34},"indices":35,"material":0}]},{"primitives":[{"mode":4,"attributes":{"POSITION":36,"NORMAL":37,"TEXCOORD_0":38},"indices":39,"material":0}]},{"primitives":[{"mode":4,"attributes":{"POSITION":40,"NORMAL":41,"TEXCOORD_0":42},"indices":43,"material":0}]}]}